# xmcd
#
# Track frame offsets: 
#        150
#        9591
#        29042
#        43528
#        60350
#        75623
#        91586
#        117398
#        136628
#        159391
#
# Disc length: 2770 seconds
#
# Revision: 0
# Processed by: cddbd v1.5.2PL0 Copyright (c) Steve Scherf et al.
# Submitted via: ExactAudioCopy v0.99pb5
#
DISCID=6d0ad00a
DTITLE=Bill Withers - Collections
DYEAR=2008
DGENRE=Blues
TTITLE0=Ain't No Sunshine
TTITLE1=Lean On Me
TTITLE2=Who Is He (And What Is He To You) ?
TTITLE3=Use Me
TTITLE4=Harlem
TTITLE5=It Ain't Because Of Me Baby
TTITLE6=Steppin' Right Along
TTITLE7=Heart In Your Life
TTITLE8=Memories Are That Way
TTITLE9=City Of The Angels
EXTD=
EXTT0=
EXTT1=
EXTT2=
EXTT3=
EXTT4=
EXTT5=
EXTT6=
EXTT7=
EXTT8=
EXTT9=
PLAYORDER=
